<svg width="630" height="320" xmlns="http://www.w3.org/2000/svg" xmlns:xlink="http://www.w3.org/1999/xlink"><path class="big-mac-line" d="M70,269.75346459104844C70.49531462069365,269.6221847805814,70.99062924138728,269.49090497011434,71.80392156862744,269.4826403862032C72.61721389586761,269.474375802292,73.74848392965434,269.5891264449366,75.41176470588236,268.9286550993041C77.07504548211038,268.26818375367156,79.27033700077969,266.8324904197619,82.62745098039215,265.26292460165917C85.98456496000462,263.69335878355645,90.50350140056021,261.9899204812608,97.05882352941175,257.18630320713356C103.6141456582633,252.38268593300631,112.20585347541078,244.47888968704754,125.921568627451,236.538311155943C139.6372837794912,228.59773262483847,158.4770062664241,220.62037180858832,183.6470588235294,208.41668238293494C208.81711138063469,196.21299295728156,240.3174940079124,179.78297492222498,299.09803921568624,148.00187856223545C357.8785844234601,116.22078220224593,443.93929221173005,69.08860751732355,530,21.956432832401177" style="stroke: rgb(31, 119, 180); stroke-width: 2; fill: transparent;"/><path class="big-mac-line" d="M70,269.76354932110905C70.49531462069365,269.64269799456326,70.99062924138728,269.5218466680174,71.80392156862744,269.50847217128603C72.61721389586761,269.49509767455464,73.74848392965434,269.5892000076378,75.41176470588236,268.97970548017213C77.07504548211038,268.37021095270643,79.27033700077969,267.0571195646919,82.62745098039215,265.3229166333672C85.98456496000462,263.58871370204247,90.50350140056021,261.4333992274076,97.05882352941175,257.3795453431106C103.6141456582633,253.32569145881354,112.20585347541078,247.37329816485428,125.921568627451,240.52379050599782C139.6372837794912,233.67428284714137,158.4770062664241,225.92766082338758,183.6470588235294,211.735036059314C208.81711138063469,197.54241129524044,240.3174940079124,176.90378379084711,299.09803921568624,145.17509146080744C357.8785844234601,113.44639913076774,443.93929221173005,70.62764197508173,530,27.80888481939571" style="stroke: rgb(255, 127, 14); stroke-width: 2; fill: transparent;"/><text class="label" x="535" y="21.956432832401177" dy="0.75em" style="fill: rgb(31, 119, 180); font-family: sans-serif; font-size: 12px;">dot_product)256</text><text class="label" x="535" y="27.80888481939571" dy="0.75em" style="fill: rgb(255, 127, 14); font-family: sans-serif; font-size: 12px;">dot_product</text><g class="x-axis" transform="translate(0,270)" fill="none" font-size="10" font-family="sans-serif" text-anchor="middle"><path class="domain" stroke="currentColor" d="M70.5,6V0.5H530.5V6"/><g class="tick" opacity="1" transform="translate(158.89215686274508,0)"><line stroke="currentColor" y2="6"/><text fill="currentColor" y="9" dy="0.71em">50</text></g><g class="tick" opacity="1" transform="translate(249.08823529411768,0)"><line stroke="currentColor" y2="6"/><text fill="currentColor" y="9" dy="0.71em">100</text></g><g class="tick" opacity="1" transform="translate(339.28431372549016,0)"><line stroke="currentColor" y2="6"/><text fill="currentColor" y="9" dy="0.71em">150</text></g><g class="tick" opacity="1" transform="translate(429.48039215686276,0)"><line stroke="currentColor" y2="6"/><text fill="currentColor" y="9" dy="0.71em">200</text></g><g class="tick" opacity="1" transform="translate(519.6764705882352,0)"><line stroke="currentColor" y2="6"/><text fill="currentColor" y="9" dy="0.71em">250</text></g></g><g class="y-axis" transform="translate(70,0)" fill="none" font-size="10" font-family="sans-serif" text-anchor="end"><g class="tick" opacity="1" transform="translate(0,246.59909076803007)"><line stroke="currentColor" x2="-6"/><text fill="currentColor" x="-9" dy="0.32em">2000</text></g><g class="tick" opacity="1" transform="translate(0,222.6862251032277)"><line stroke="currentColor" x2="-6"/><text fill="currentColor" x="-9" dy="0.32em">4000</text></g><g class="tick" opacity="1" transform="translate(0,198.77335943842533)"><line stroke="currentColor" x2="-6"/><text fill="currentColor" x="-9" dy="0.32em">6000</text></g><g class="tick" opacity="1" transform="translate(0,174.86049377362298)"><line stroke="currentColor" x2="-6"/><text fill="currentColor" x="-9" dy="0.32em">8000</text></g><g class="tick" opacity="1" transform="translate(0,150.94762810882062)"><line stroke="currentColor" x2="-6"/><text fill="currentColor" x="-9" dy="0.32em">10000</text></g><g class="tick" opacity="1" transform="translate(0,127.03476244401827)"><line stroke="currentColor" x2="-6"/><text fill="currentColor" x="-9" dy="0.32em">12000</text></g><g class="tick" opacity="1" transform="translate(0,103.12189677921592)"><line stroke="currentColor" x2="-6"/><text fill="currentColor" x="-9" dy="0.32em">14000</text></g><g class="tick" opacity="1" transform="translate(0,79.20903111441356)"><line stroke="currentColor" x2="-6"/><text fill="currentColor" x="-9" dy="0.32em">16000</text></g><g class="tick" opacity="1" transform="translate(0,55.2961654496112)"><line stroke="currentColor" x2="-6"/><text fill="currentColor" x="-9" dy="0.32em">18000</text></g><g class="tick" opacity="1" transform="translate(0,31.383299784808877)"><line stroke="currentColor" x2="-6"/><text fill="currentColor" x="-9" dy="0.32em">20000</text></g></g></svg>