<svg width="630" height="320" xmlns="http://www.w3.org/2000/svg" xmlns:xlink="http://www.w3.org/1999/xlink"><path class="big-mac-line" d="M70,269.0250569991498C70.49531462069365,268.8134348045401,70.99062924138728,268.60181260993045,71.80392156862744,268.0897259876709C72.61721389586761,267.5776393654113,73.74848392965434,266.765088315502,75.41176470588236,265.84897785723746C77.07504548211038,264.9328673989729,79.27033700077969,263.91319753235285,82.62745098039215,262.11215912885115C85.98456496000462,260.31112072534944,90.50350140056021,257.7287137849664,97.05882352941175,254.02255041376878C103.6141456582633,250.3163870425712,112.20585347541078,245.4864672405592,125.921568627451,238.00568855820822C139.6372837794912,230.52490987585725,158.4770062664241,220.3932723131673,183.6470588235294,206.56056016240208C208.81711138063469,192.72784801163687,240.3174940079124,175.19406127279657,299.09803921568624,142.5171881313572C357.8785844234601,109.8403149899178,443.93929221173005,62.02035544587936,530,14.200395901840922" style="stroke: rgb(31, 119, 180); stroke-width: 2; fill: transparent;"/><path class="big-mac-line" d="M70,269.849034028898C70.49531462069365,269.8120474347928,70.99062924138728,269.77506084068756,71.80392156862744,269.7012656376216C72.61721389586761,269.6274704345556,73.74848392965434,269.51686662252894,75.41176470588236,269.36191742624374C77.07504548211038,269.20696822995853,79.27033700077969,269.00767364941487,82.62745098039215,268.44372920747384C85.98456496000462,267.8797847655328,90.50350140056021,266.9511904621944,97.05882352941175,265.69546405336075C103.6141456582633,264.4397376445271,112.20585347541078,262.8568791301982,125.921568627451,260.5398644861922C139.6372837794912,258.2228498421862,158.4770062664241,255.171679068503,183.6470588235294,250.6146080303417C208.81711138063469,246.05753699218042,240.3174940079124,239.994565689541,299.09803921568624,229.67116214662303C357.8785844234601,219.34775860370507,443.93929221173005,204.7639228205087,530,190.1800870373123" style="stroke: rgb(255, 127, 14); stroke-width: 2; fill: transparent;"/><text class="label" x="535" y="14.200395901840922" dy="0.75em" style="fill: rgb(31, 119, 180); font-family: sans-serif; font-size: 12px;">dot_product</text><text class="label" x="535" y="190.1800870373123" dy="0.75em" style="fill: rgb(255, 127, 14); font-family: sans-serif; font-size: 12px;">dot_product_256</text><g class="x-axis" transform="translate(0,270)" fill="none" font-size="10" font-family="sans-serif" text-anchor="middle"><path class="domain" stroke="currentColor" d="M70.5,6V0.5H530.5V6"/><g class="tick" opacity="1" transform="translate(158.89215686274508,0)"><line stroke="currentColor" y2="6"/><text fill="currentColor" y="9" dy="0.71em">50</text></g><g class="tick" opacity="1" transform="translate(249.08823529411768,0)"><line stroke="currentColor" y2="6"/><text fill="currentColor" y="9" dy="0.71em">100</text></g><g class="tick" opacity="1" transform="translate(339.28431372549016,0)"><line stroke="currentColor" y2="6"/><text fill="currentColor" y="9" dy="0.71em">150</text></g><g class="tick" opacity="1" transform="translate(429.48039215686276,0)"><line stroke="currentColor" y2="6"/><text fill="currentColor" y="9" dy="0.71em">200</text></g><g class="tick" opacity="1" transform="translate(519.6764705882352,0)"><line stroke="currentColor" y2="6"/><text fill="currentColor" y="9" dy="0.71em">250</text></g></g><g class="y-axis" transform="translate(70,0)" fill="none" font-size="10" font-family="sans-serif" text-anchor="end"><g class="tick" opacity="1" transform="translate(0,249.50222088669727)"><line stroke="currentColor" x2="-6"/><text fill="currentColor" x="-9" dy="0.32em">5000</text></g><g class="tick" opacity="1" transform="translate(0,228.50024137749264)"><line stroke="currentColor" x2="-6"/><text fill="currentColor" x="-9" dy="0.32em">10000</text></g><g class="tick" opacity="1" transform="translate(0,207.49826186828807)"><line stroke="currentColor" x2="-6"/><text fill="currentColor" x="-9" dy="0.32em">15000</text></g><g class="tick" opacity="1" transform="translate(0,186.49628235908347)"><line stroke="currentColor" x2="-6"/><text fill="currentColor" x="-9" dy="0.32em">20000</text></g><g class="tick" opacity="1" transform="translate(0,165.49430284987884)"><line stroke="currentColor" x2="-6"/><text fill="currentColor" x="-9" dy="0.32em">25000</text></g><g class="tick" opacity="1" transform="translate(0,144.49232334067423)"><line stroke="currentColor" x2="-6"/><text fill="currentColor" x="-9" dy="0.32em">30000</text></g><g class="tick" opacity="1" transform="translate(0,123.49034383146964)"><line stroke="currentColor" x2="-6"/><text fill="currentColor" x="-9" dy="0.32em">35000</text></g><g class="tick" opacity="1" transform="translate(0,102.48836432226506)"><line stroke="currentColor" x2="-6"/><text fill="currentColor" x="-9" dy="0.32em">40000</text></g><g class="tick" opacity="1" transform="translate(0,81.48638481306044)"><line stroke="currentColor" x2="-6"/><text fill="currentColor" x="-9" dy="0.32em">45000</text></g><g class="tick" opacity="1" transform="translate(0,60.48440530385586)"><line stroke="currentColor" x2="-6"/><text fill="currentColor" x="-9" dy="0.32em">50000</text></g><g class="tick" opacity="1" transform="translate(0,39.48242579465128)"><line stroke="currentColor" x2="-6"/><text fill="currentColor" x="-9" dy="0.32em">55000</text></g><g class="tick" opacity="1" transform="translate(0,18.480446285446654)"><line stroke="currentColor" x2="-6"/><text fill="currentColor" x="-9" dy="0.32em">60000</text></g></g></svg>